<?xml version="1.0" encoding="UTF-8" standalone="no"?>
<!-- Created with Inkscape (http://www.inkscape.org/) -->

<svg
   width="210mm"
   height="297mm"
   viewBox="0 0 210 297"
   version="1.1"
   id="svg5"
   xml:space="preserve"
   xmlns="http://www.w3.org/2000/svg"
   xmlns:svg="http://www.w3.org/2000/svg"><defs
     id="defs2"><clipPath
       clipPathUnits="userSpaceOnUse"
       id="clipPath25"><path
         d="M 0,4258 H 2279 V 6212 H 0 V 4258"
         id="path23" /></clipPath></defs><g
     id="layer1" /><g
     id="g19"
     transform="matrix(0,-0.07775611,-0.07775611,0,515.02049,240.38731)"><g
       id="g21"
       clip-path="url(#clipPath25)"><path
         d="M 1139,4258 H 651 L 0,5235 651,6212 h 977 l 651,-977 -651,-977 h -423"
         style="fill:none;stroke:#000000;stroke-width:6;stroke-linecap:round;stroke-linejoin:round;stroke-miterlimit:10;stroke-dasharray:none;stroke-opacity:1"
         id="path27" /><path
         d="m 1139,4258 v 325 H 825 l -434,652 434,652 h 629 l 434,-652 -434,-652 h -249 v -325"
         style="fill:none;stroke:#000000;stroke-width:6;stroke-linecap:round;stroke-linejoin:round;stroke-miterlimit:10;stroke-dasharray:none;stroke-opacity:1"
         id="path29" /><g
         id="g31"><path
           d="M 2279,5235 1888,4648 V 5822 Z"
           style="fill:#000000;fill-opacity:1;fill-rule:nonzero;stroke:#000000;stroke-width:6.25;stroke-linecap:round;stroke-linejoin:miter;stroke-miterlimit:10;stroke-dasharray:none;stroke-opacity:1"
           id="path33" /></g><g
         id="g35"><path
           d="m 1888,4648 v 587 l -260,-977 z m 0,587 -260,-977 v 587 z"
           style="fill:#000000;fill-opacity:1;fill-rule:nonzero;stroke:#000000;stroke-width:6.25;stroke-linecap:round;stroke-linejoin:miter;stroke-miterlimit:10;stroke-dasharray:none;stroke-opacity:1"
           id="path37" /></g><g
         id="g39"><path
           d="m 1888,5235 v 587 l -260,-197 z m 0,587 -260,-197 v 587 z"
           style="fill:#000000;fill-opacity:1;fill-rule:nonzero;stroke:#000000;stroke-width:6.25;stroke-linecap:round;stroke-linejoin:miter;stroke-miterlimit:10;stroke-dasharray:none;stroke-opacity:1"
           id="path41" /></g><g
         id="g43"><path
           d="m 1612,5496 -158,-238 v 475 z"
           style="fill:#000000;fill-opacity:1;fill-rule:nonzero;stroke:#000000;stroke-width:6.25;stroke-linecap:round;stroke-linejoin:miter;stroke-miterlimit:10;stroke-dasharray:none;stroke-opacity:1"
           id="path45" /></g><g
         id="g47"><path
           d="m 1612,4974 -158,-237 v 475 z"
           style="fill:#000000;fill-opacity:1;fill-rule:nonzero;stroke:#000000;stroke-width:6.25;stroke-linecap:round;stroke-linejoin:miter;stroke-miterlimit:10;stroke-dasharray:none;stroke-opacity:1"
           id="path49" /></g><g
         id="g51"><path
           d="m 1628,4258 v 587 l -174,-587 z m 0,587 -174,-587 v 325 z"
           style="fill:#000000;fill-opacity:1;fill-rule:nonzero;stroke:#000000;stroke-width:6.25;stroke-linecap:round;stroke-linejoin:miter;stroke-miterlimit:10;stroke-dasharray:none;stroke-opacity:1"
           id="path53" /></g><g
         id="g55"><path
           d="m 1628,5625 v 587 l -174,-325 z m 0,587 -174,-325 v 325 z"
           style="fill:#000000;fill-opacity:1;fill-rule:nonzero;stroke:#000000;stroke-width:6.25;stroke-linecap:round;stroke-linejoin:miter;stroke-miterlimit:10;stroke-dasharray:none;stroke-opacity:1"
           id="path57" /></g><g
         id="g59"><path
           d="m 1454,4737 v 475 l -16,-498 z m 0,475 -16,-498 v 521 z"
           style="fill:#000000;fill-opacity:1;fill-rule:nonzero;stroke:#000000;stroke-width:6.25;stroke-linecap:round;stroke-linejoin:miter;stroke-miterlimit:10;stroke-dasharray:none;stroke-opacity:1"
           id="path61" /></g><g
         id="g63"><path
           d="m 1454,5258 v 475 l -16,-498 z m 0,475 -16,-498 v 521 z"
           style="fill:#000000;fill-opacity:1;fill-rule:nonzero;stroke:#000000;stroke-width:6.25;stroke-linecap:round;stroke-linejoin:miter;stroke-miterlimit:10;stroke-dasharray:none;stroke-opacity:1"
           id="path65" /></g><g
         id="g67"><path
           d="m 1438,4714 v 1042 l -10,-1059 z m 0,1042 -10,-1059 v 1076 z"
           style="fill:#000000;fill-opacity:1;fill-rule:nonzero;stroke:#000000;stroke-width:6.25;stroke-linecap:round;stroke-linejoin:miter;stroke-miterlimit:10;stroke-dasharray:none;stroke-opacity:1"
           id="path69" /></g><g
         id="g71"><path
           d="m 1454,4258 v 325 l -249,-325 z m 0,325 -249,-325 v 325 z"
           style="fill:#000000;fill-opacity:1;fill-rule:nonzero;stroke:#000000;stroke-width:6.25;stroke-linecap:round;stroke-linejoin:miter;stroke-miterlimit:10;stroke-dasharray:none;stroke-opacity:1"
           id="path73" /></g><g
         id="g75"><path
           d="M 1428,4697 V 5773 L 1158,4697 Z m 0,1076 -270,-1076 v 1076 z"
           style="fill:#000000;fill-opacity:1;fill-rule:nonzero;stroke:#000000;stroke-width:6.25;stroke-linecap:round;stroke-linejoin:miter;stroke-miterlimit:10;stroke-dasharray:none;stroke-opacity:1"
           id="path77" /></g><g
         id="g79"><path
           d="m 1034,5245 v -20 l -7,10 z"
           style="fill:#000000;fill-opacity:1;fill-rule:nonzero;stroke:#000000;stroke-width:6.25;stroke-linecap:round;stroke-linejoin:miter;stroke-miterlimit:10;stroke-dasharray:none;stroke-opacity:1"
           id="path81" /></g><g
         id="g83"><path
           d="m 1158,4697 v 343 l -124,-343 z m 0,343 -124,-343 v 343 z"
           style="fill:#000000;fill-opacity:1;fill-rule:nonzero;stroke:#000000;stroke-width:6.25;stroke-linecap:round;stroke-linejoin:miter;stroke-miterlimit:10;stroke-dasharray:none;stroke-opacity:1"
           id="path85" /></g><g
         id="g87"><path
           d="m 1158,5040 v 390 l -124,-205 z m 0,390 -124,-205 v 20 z"
           style="fill:#000000;fill-opacity:1;fill-rule:nonzero;stroke:#000000;stroke-width:6.25;stroke-linecap:round;stroke-linejoin:miter;stroke-miterlimit:10;stroke-dasharray:none;stroke-opacity:1"
           id="path89" /></g><g
         id="g91"><path
           d="m 1158,5430 v 343 l -124,-343 z m 0,343 -124,-343 v 343 z"
           style="fill:#000000;fill-opacity:1;fill-rule:nonzero;stroke:#000000;stroke-width:6.25;stroke-linecap:round;stroke-linejoin:miter;stroke-miterlimit:10;stroke-dasharray:none;stroke-opacity:1"
           id="path93" /></g><g
         id="g95"><path
           d="m 1034,4697 v 343 L 851,4697 Z m 0,343 -183,-343 v 343 z"
           style="fill:#000000;fill-opacity:1;fill-rule:nonzero;stroke:#000000;stroke-width:6.25;stroke-linecap:round;stroke-linejoin:miter;stroke-miterlimit:10;stroke-dasharray:none;stroke-opacity:1"
           id="path97" /></g><g
         id="g99"><path
           d="m 1034,5430 v 343 L 851,5430 Z m 0,343 -183,-343 v 343 z"
           style="fill:#000000;fill-opacity:1;fill-rule:nonzero;stroke:#000000;stroke-width:6.25;stroke-linecap:round;stroke-linejoin:miter;stroke-miterlimit:10;stroke-dasharray:none;stroke-opacity:1"
           id="path101" /></g><g
         id="g103"><path
           d="m 1139,4258 v 325 L 825,4258 Z m 0,325 -314,-325 v 325 z"
           style="fill:#000000;fill-opacity:1;fill-rule:nonzero;stroke:#000000;stroke-width:6.25;stroke-linecap:round;stroke-linejoin:miter;stroke-miterlimit:10;stroke-dasharray:none;stroke-opacity:1"
           id="path105" /></g><g
         id="g107"><path
           d="m 1454,5887 v 325 L 825,5887 Z m 0,325 -629,-325 v 325 z"
           style="fill:#000000;fill-opacity:1;fill-rule:nonzero;stroke:#000000;stroke-width:6.25;stroke-linecap:round;stroke-linejoin:miter;stroke-miterlimit:10;stroke-dasharray:none;stroke-opacity:1"
           id="path109" /></g><g
         id="g111"><path
           d="m 651,5472 v -42 h -28 z"
           style="fill:#000000;fill-opacity:1;fill-rule:nonzero;stroke:#000000;stroke-width:6.25;stroke-linecap:round;stroke-linejoin:miter;stroke-miterlimit:10;stroke-dasharray:none;stroke-opacity:1"
           id="path113" /></g><g
         id="g115"><path
           d="m 651,5040 v -42 l -28,42 z"
           style="fill:#000000;fill-opacity:1;fill-rule:nonzero;stroke:#000000;stroke-width:6.25;stroke-linecap:round;stroke-linejoin:miter;stroke-miterlimit:10;stroke-dasharray:none;stroke-opacity:1"
           id="path117" /></g><g
         id="g119"><path
           d="m 825,4258 v 325 L 651,4258 Z m 0,325 -174,-325 v 587 z"
           style="fill:#000000;fill-opacity:1;fill-rule:nonzero;stroke:#000000;stroke-width:6.25;stroke-linecap:round;stroke-linejoin:miter;stroke-miterlimit:10;stroke-dasharray:none;stroke-opacity:1"
           id="path121" /></g><g
         id="g123"><path
           d="m 851,4697 v 343 l -200,-42 z m 0,343 -200,-42 v 42 z"
           style="fill:#000000;fill-opacity:1;fill-rule:nonzero;stroke:#000000;stroke-width:6.25;stroke-linecap:round;stroke-linejoin:miter;stroke-miterlimit:10;stroke-dasharray:none;stroke-opacity:1"
           id="path125" /></g><g
         id="g127"><path
           d="m 851,5430 v 343 L 651,5430 Z m 0,343 -200,-343 v 42 z"
           style="fill:#000000;fill-opacity:1;fill-rule:nonzero;stroke:#000000;stroke-width:6.25;stroke-linecap:round;stroke-linejoin:miter;stroke-miterlimit:10;stroke-dasharray:none;stroke-opacity:1"
           id="path129" /></g><g
         id="g131"><path
           d="m 825,5887 v 325 L 651,5625 Z m 0,325 -174,-587 v 587 z"
           style="fill:#000000;fill-opacity:1;fill-rule:nonzero;stroke:#000000;stroke-width:6.25;stroke-linecap:round;stroke-linejoin:miter;stroke-miterlimit:10;stroke-dasharray:none;stroke-opacity:1"
           id="path133" /></g><g
         id="g135"><path
           d="m 651,4258 v 587 l -28,-546 z m 0,587 -28,-546 v 587 z"
           style="fill:#000000;fill-opacity:1;fill-rule:nonzero;stroke:#000000;stroke-width:6.25;stroke-linecap:round;stroke-linejoin:miter;stroke-miterlimit:10;stroke-dasharray:none;stroke-opacity:1"
           id="path137" /></g><g
         id="g139"><path
           d="m 651,5625 v 587 l -28,-628 z m 0,587 -28,-628 v 587 z"
           style="fill:#000000;fill-opacity:1;fill-rule:nonzero;stroke:#000000;stroke-width:6.25;stroke-linecap:round;stroke-linejoin:miter;stroke-miterlimit:10;stroke-dasharray:none;stroke-opacity:1"
           id="path141" /></g><g
         id="g143"><path
           d="M 391,5822 V 4648 L 0,5235 Z"
           style="fill:#000000;fill-opacity:1;fill-rule:nonzero;stroke:#000000;stroke-width:6.25;stroke-linecap:round;stroke-linejoin:miter;stroke-miterlimit:10;stroke-dasharray:none;stroke-opacity:1"
           id="path145" /></g><g
         id="g147"><path
           d="m 623,4299 v 587 L 391,4648 Z m 0,587 -232,-238 v 587 z"
           style="fill:#000000;fill-opacity:1;fill-rule:nonzero;stroke:#000000;stroke-width:6.25;stroke-linecap:round;stroke-linejoin:miter;stroke-miterlimit:10;stroke-dasharray:none;stroke-opacity:1"
           id="path149" /></g><g
         id="g151"><path
           d="m 623,5584 v 587 L 391,5235 Z m 0,587 -232,-936 v 587 z"
           style="fill:#000000;fill-opacity:1;fill-rule:nonzero;stroke:#000000;stroke-width:6.25;stroke-linecap:round;stroke-linejoin:miter;stroke-miterlimit:10;stroke-dasharray:none;stroke-opacity:1"
           id="path153" /></g><path
         d="m 623,5430 228,343 h 577 l 184,-277 -174,-261 174,-261 -184,-277 H 851 l -228,343 h 411 124 l -131,195 131,195 H 1034 623"
         style="fill:none;stroke:#000000;stroke-width:6;stroke-linecap:round;stroke-linejoin:round;stroke-miterlimit:10;stroke-dasharray:none;stroke-opacity:1"
         id="path155" /></g></g></svg>
